<?xml version="1.0" encoding="utf-8"?>
<!-- Generator: Adobe Illustrator 27.8.1, SVG Export Plug-In . SVG Version: 6.00 Build 0)  -->
<svg version="1.1" id="Layer_1" xmlns="http://www.w3.org/2000/svg" xmlns:xlink="http://www.w3.org/1999/xlink" x="0px" y="0px"
	 viewBox="0 0 172 52" style="enable-background:new 0 0 172 52;" xml:space="preserve">
<style type="text/css">
	.st0{fill:#FFFFFF;}
</style>
<g>
	<path class="st0" d="M38.4,47.3H12.3c-4.5,0-8.2-3.7-8.2-8.2V12.9c0-4.5,3.7-8.2,8.2-8.2h26.2c4.5,0,8.2,3.7,8.2,8.2v26.2
		C46.6,43.6,43,47.3,38.4,47.3 M12.3,8.4c-2.5,0-4.5,2-4.5,4.5v26.2c0,2.5,2,4.5,4.5,4.5h26.2c2.5,0,4.5-2,4.5-4.5V12.9
		c0-2.5-2-4.5-4.5-4.5H12.3z"/>
	<path class="st0" d="M59.6,22.1l3.5-4.8c1.1-1.5,1.5-2.2,2-3.1h6c-0.9,1.1-1.4,1.8-2.5,3.2l-3.8,5.1l4.5,5.6
		c1.1,1.4,2.1,2.4,3.3,3.8h-7.3c-0.3-0.6-0.8-1.4-1.7-2.5l-4-5.1v3.1c0,1.8,0.1,3.8,0.1,4.6h-5.6c0.1-0.8,0.1-2.9,0.1-4.6v-8.4
		c0-1.8-0.1-3.8-0.1-4.6h5.6c-0.1,0.8-0.1,2.9-0.1,4.6V22.1z"/>
	<path class="st0" d="M82.7,18.4v2.4h1.1c1.9,0,3.9-0.1,4.8-0.1V25c-0.9-0.1-2.9-0.1-4.8-0.1h-1.1v2.8h1.7c1.9,0,4-0.1,4.8-0.1v4.3
		c-0.8-0.1-2.9-0.1-4.8-0.1h-7.2c0.1-1.4,0.1-3.4,0.1-4.6v-8.4c0-1.8-0.1-3.8-0.1-4.5h7c1.9,0,4-0.1,4.8-0.2v4.4
		c-0.9-0.1-2.9-0.1-4.8-0.1H82.7z"/>
	<path class="st0" d="M101.1,18.4v2.4h1.1c1.9,0,3.9-0.1,4.8-0.1V25c-0.9-0.1-2.9-0.1-4.8-0.1h-1.1v2.8h1.7c1.9,0,4-0.1,4.8-0.1v4.3
		c-0.8-0.1-2.9-0.1-4.8-0.1h-7.2c0.1-1.4,0.1-3.4,0.1-4.6v-8.4c0-1.8-0.1-3.8-0.1-4.5h7c1.9,0,4-0.1,4.8-0.2v4.4
		c-0.9-0.1-2.9-0.1-4.8-0.1H101.1z"/>
	<path class="st0" d="M119.4,27.5h2.4c1.9,0,4.1,0,4.9-0.1v4.4c-0.9-0.1-3-0.1-4.9-0.1h-7.9c0.1-1.4,0.1-3.4,0.1-4.6v-8.3
		c0-1.8-0.1-3.8-0.1-4.6h5.6c-0.1,0.8-0.1,2.8-0.1,4.6V27.5z"/>
	<path class="st0" d="M137.5,18.4v2.4h1.1c1.9,0,3.9-0.1,4.8-0.1V25c-0.9-0.1-2.9-0.1-4.8-0.1h-1.1v2.8h1.7c1.9,0,4-0.1,4.8-0.1v4.3
		c-0.8-0.1-2.9-0.1-4.8-0.1H132c0.1-1.4,0.1-3.4,0.1-4.6v-8.4c0-1.8-0.1-3.8-0.1-4.5h7c1.9,0,4-0.1,4.8-0.2v4.4
		c-0.9-0.1-2.9-0.1-4.8-0.1H137.5z"/>
	<path class="st0" d="M155.5,27.9v-3.8l-4.6-6.7c-0.9-1.3-1.7-2.3-2.5-3.3h6.5c0.4,0.8,0.7,1.3,1.1,1.9l2.4,3.8l2.4-3.7
		c0.4-0.6,0.7-1.2,1.2-2h6c-0.9,1.1-1.9,2.5-2.8,3.8l-4.2,6.1v3.9c0,1.8,0.1,3,0.1,3.8h-5.6C155.4,30.9,155.5,29.7,155.5,27.9"/>
	<polygon class="st0" points="62.5,36.7 57.9,36.7 57.9,38.8 62,38.8 62,40.1 57.9,40.1 57.9,42.3 62.6,42.3 62.6,43.6 56.4,43.6 
		56.4,35.4 62.5,35.4 	"/>
	<polygon class="st0" points="66.6,35.4 68,35.4 68,42.3 72.3,42.3 72.3,43.6 66.6,43.6 	"/>
	<polygon class="st0" points="82.2,36.7 77.6,36.7 77.6,38.8 81.7,38.8 81.7,40.1 77.6,40.1 77.6,42.3 82.3,42.3 82.3,43.6 
		76.2,43.6 76.2,35.4 82.2,35.4 	"/>
	<path class="st0" d="M90.1,43.7c-2.4,0-4.2-1.9-4.2-4.2c0-2.3,1.7-4.2,4.2-4.2c1.5,0,2.4,0.5,3.2,1.3l-0.9,1.1
		c-0.7-0.6-1.4-1-2.3-1c-1.6,0-2.7,1.3-2.7,2.9c0,1.6,1.1,2.9,2.7,2.9c1,0,1.6-0.4,2.3-1.1l0.9,0.9C92.6,43.2,91.7,43.7,90.1,43.7"
		/>
	<polygon class="st0" points="100.8,43.6 99.3,43.6 99.3,36.7 96.7,36.7 96.7,35.4 103.4,35.4 103.4,36.7 100.8,36.7 	"/>
	<path class="st0" d="M112.5,43.6l-2-2.9h-1.8v2.9h-1.4v-8.2h3.6c1.9,0,3,1,3,2.6c0,1.4-0.8,2.2-2,2.5l2.2,3.1H112.5z M110.8,36.7
		h-2.1v2.7h2.1c1,0,1.7-0.5,1.7-1.4C112.5,37.2,111.8,36.7,110.8,36.7"/>
	<path class="st0" d="M121.9,43.7c-2.5,0-4.3-1.9-4.3-4.2c0-2.3,1.8-4.2,4.3-4.2c2.5,0,4.3,1.9,4.3,4.2
		C126.2,41.8,124.4,43.7,121.9,43.7 M121.9,36.6c-1.6,0-2.8,1.3-2.8,2.9c0,1.6,1.2,2.9,2.8,2.9c1.6,0,2.8-1.3,2.8-2.9
		S123.6,36.6,121.9,36.6"/>
	<polygon class="st0" points="136,35.4 137.4,35.4 137.4,43.6 136.2,43.6 131.7,37.8 131.7,43.6 130.3,43.6 130.3,35.4 131.6,35.4 
		136,41.1 	"/>
	<rect x="142" y="35.4" class="st0" width="1.4" height="8.2"/>
	<path class="st0" d="M151.7,43.7c-2.4,0-4.2-1.9-4.2-4.2c0-2.3,1.7-4.2,4.2-4.2c1.5,0,2.4,0.5,3.2,1.3l-0.9,1.1
		c-0.7-0.6-1.4-1-2.3-1c-1.6,0-2.7,1.3-2.7,2.9c0,1.6,1.1,2.9,2.7,2.9c1,0,1.6-0.4,2.3-1.1l0.9,0.9
		C154.2,43.2,153.2,43.7,151.7,43.7"/>
	<path class="st0" d="M162,38.8c1.7,0.4,2.6,1,2.6,2.4c0,1.5-1.2,2.5-2.9,2.5c-1.3,0-2.4-0.4-3.4-1.3l0.9-1c0.8,0.7,1.6,1.1,2.6,1.1
		c0.9,0,1.5-0.4,1.5-1c0-0.6-0.3-0.9-1.8-1.3c-1.7-0.4-2.7-0.9-2.7-2.5c0-1.4,1.2-2.4,2.8-2.4c1.2,0,2.1,0.4,3,1l-0.8,1.1
		c-0.7-0.6-1.5-0.8-2.2-0.8c-0.8,0-1.3,0.4-1.3,1C160.1,38.2,160.5,38.5,162,38.8"/>
	<path class="st0" d="M30.2,33.5l1.8-4.1c0.5-1.1-0.3-2.3-1.5-2.3l-3.2,0l11.5-12.9h-5L22.6,26.5c-0.2,0.2-0.5,0-0.4-0.3l4.5-9.3
		c0.6-1.3-0.4-2.7-1.8-2.7H13.1L10.6,18h9.6c0.7,0,1.1,0.7,0.8,1.3l-8.4,18.3h4.6l2.5-5.8c0.2-0.5,0.8-0.9,1.4-0.9h4.2
		c0.7,0,1.1,0.7,0.9,1.3L25,35c-0.5,1.3,0.4,2.7,1.8,2.7h9l1.8-4.2H30.2z"/>
</g>
<g>
	<path class="st0" d="M38.4,47.3H12.3c-4.5,0-8.2-3.7-8.2-8.2V12.9c0-4.5,3.7-8.2,8.2-8.2h26.2c4.5,0,8.2,3.7,8.2,8.2v26.2
		C46.6,43.6,43,47.3,38.4,47.3 M12.3,8.4c-2.5,0-4.5,2-4.5,4.5v26.2c0,2.5,2,4.5,4.5,4.5h26.2c2.5,0,4.5-2,4.5-4.5V12.9
		c0-2.5-2-4.5-4.5-4.5H12.3z"/>
	<path class="st0" d="M59.6,22.1l3.5-4.8c1.1-1.5,1.5-2.2,2-3.1h6c-0.9,1.1-1.4,1.8-2.5,3.2l-3.8,5.1l4.5,5.6
		c1.1,1.4,2.1,2.4,3.3,3.8h-7.3c-0.3-0.6-0.8-1.4-1.7-2.5l-4-5.1v3.1c0,1.8,0.1,3.8,0.1,4.6h-5.6c0.1-0.8,0.1-2.9,0.1-4.6v-8.4
		c0-1.8-0.1-3.8-0.1-4.6h5.6c-0.1,0.8-0.1,2.9-0.1,4.6V22.1z"/>
	<path class="st0" d="M82.7,18.4v2.4h1.1c1.9,0,3.9-0.1,4.8-0.1V25c-0.9-0.1-2.9-0.1-4.8-0.1h-1.1v2.8h1.7c1.9,0,4-0.1,4.8-0.1v4.3
		c-0.8-0.1-2.9-0.1-4.8-0.1h-7.2c0.1-1.4,0.1-3.4,0.1-4.6v-8.4c0-1.8-0.1-3.8-0.1-4.5h7c1.9,0,4-0.1,4.8-0.2v4.4
		c-0.9-0.1-2.9-0.1-4.8-0.1H82.7z"/>
	<path class="st0" d="M101.1,18.4v2.4h1.1c1.9,0,3.9-0.1,4.8-0.1V25c-0.9-0.1-2.9-0.1-4.8-0.1h-1.1v2.8h1.7c1.9,0,4-0.1,4.8-0.1v4.3
		c-0.8-0.1-2.9-0.1-4.8-0.1h-7.2c0.1-1.4,0.1-3.4,0.1-4.6v-8.4c0-1.8-0.1-3.8-0.1-4.5h7c1.9,0,4-0.1,4.8-0.2v4.4
		c-0.9-0.1-2.9-0.1-4.8-0.1H101.1z"/>
	<path class="st0" d="M119.4,27.5h2.4c1.9,0,4.1,0,4.9-0.1v4.4c-0.9-0.1-3-0.1-4.9-0.1h-7.9c0.1-1.4,0.1-3.4,0.1-4.6v-8.3
		c0-1.8-0.1-3.8-0.1-4.6h5.6c-0.1,0.8-0.1,2.8-0.1,4.6V27.5z"/>
	<path class="st0" d="M137.5,18.4v2.4h1.1c1.9,0,3.9-0.1,4.8-0.1V25c-0.9-0.1-2.9-0.1-4.8-0.1h-1.1v2.8h1.7c1.9,0,4-0.1,4.8-0.1v4.3
		c-0.8-0.1-2.9-0.1-4.8-0.1H132c0.1-1.4,0.1-3.4,0.1-4.6v-8.4c0-1.8-0.1-3.8-0.1-4.5h7c1.9,0,4-0.1,4.8-0.2v4.4
		c-0.9-0.1-2.9-0.1-4.8-0.1H137.5z"/>
	<path class="st0" d="M155.5,27.9v-3.8l-4.6-6.7c-0.9-1.3-1.7-2.3-2.5-3.3h6.5c0.4,0.8,0.7,1.3,1.1,1.9l2.4,3.8l2.4-3.7
		c0.4-0.6,0.7-1.2,1.2-2h6c-0.9,1.1-1.9,2.5-2.8,3.8l-4.2,6.1v3.9c0,1.8,0.1,3,0.1,3.8h-5.6C155.4,30.9,155.5,29.7,155.5,27.9"/>
	<polygon class="st0" points="62.5,36.7 57.9,36.7 57.9,38.8 62,38.8 62,40.1 57.9,40.1 57.9,42.3 62.6,42.3 62.6,43.6 56.4,43.6 
		56.4,35.4 62.5,35.4 	"/>
	<polygon class="st0" points="66.6,35.4 68,35.4 68,42.3 72.3,42.3 72.3,43.6 66.6,43.6 	"/>
	<polygon class="st0" points="82.2,36.7 77.6,36.7 77.6,38.8 81.7,38.8 81.7,40.1 77.6,40.1 77.6,42.3 82.3,42.3 82.3,43.6 
		76.2,43.6 76.2,35.4 82.2,35.4 	"/>
	<path class="st0" d="M90.1,43.7c-2.4,0-4.2-1.9-4.2-4.2c0-2.3,1.7-4.2,4.2-4.2c1.5,0,2.4,0.5,3.2,1.3l-0.9,1.1
		c-0.7-0.6-1.4-1-2.3-1c-1.6,0-2.7,1.3-2.7,2.9c0,1.6,1.1,2.9,2.7,2.9c1,0,1.6-0.4,2.3-1.1l0.9,0.9C92.6,43.2,91.7,43.7,90.1,43.7"
		/>
	<polygon class="st0" points="100.8,43.6 99.3,43.6 99.3,36.7 96.7,36.7 96.7,35.4 103.4,35.4 103.4,36.7 100.8,36.7 	"/>
	<path class="st0" d="M112.5,43.6l-2-2.9h-1.8v2.9h-1.4v-8.2h3.6c1.9,0,3,1,3,2.6c0,1.4-0.8,2.2-2,2.5l2.2,3.1H112.5z M110.8,36.7
		h-2.1v2.7h2.1c1,0,1.7-0.5,1.7-1.4C112.5,37.2,111.8,36.7,110.8,36.7"/>
	<path class="st0" d="M121.9,43.7c-2.5,0-4.3-1.9-4.3-4.2c0-2.3,1.8-4.2,4.3-4.2c2.5,0,4.3,1.9,4.3,4.2
		C126.2,41.8,124.4,43.7,121.9,43.7 M121.9,36.6c-1.6,0-2.8,1.3-2.8,2.9c0,1.6,1.2,2.9,2.8,2.9c1.6,0,2.8-1.3,2.8-2.9
		S123.6,36.6,121.9,36.6"/>
	<polygon class="st0" points="136,35.4 137.4,35.4 137.4,43.6 136.2,43.6 131.7,37.8 131.7,43.6 130.3,43.6 130.3,35.4 131.6,35.4 
		136,41.1 	"/>
	<rect x="142" y="35.4" class="st0" width="1.4" height="8.2"/>
	<path class="st0" d="M151.7,43.7c-2.4,0-4.2-1.9-4.2-4.2c0-2.3,1.7-4.2,4.2-4.2c1.5,0,2.4,0.5,3.2,1.3l-0.9,1.1
		c-0.7-0.6-1.4-1-2.3-1c-1.6,0-2.7,1.3-2.7,2.9c0,1.6,1.1,2.9,2.7,2.9c1,0,1.6-0.4,2.3-1.1l0.9,0.9
		C154.2,43.2,153.2,43.7,151.7,43.7"/>
	<path class="st0" d="M162,38.8c1.7,0.4,2.6,1,2.6,2.4c0,1.5-1.2,2.5-2.9,2.5c-1.3,0-2.4-0.4-3.4-1.3l0.9-1c0.8,0.7,1.6,1.1,2.6,1.1
		c0.9,0,1.5-0.4,1.5-1c0-0.6-0.3-0.9-1.8-1.3c-1.7-0.4-2.7-0.9-2.7-2.5c0-1.4,1.2-2.4,2.8-2.4c1.2,0,2.1,0.4,3,1l-0.8,1.1
		c-0.7-0.6-1.5-0.8-2.2-0.8c-0.8,0-1.3,0.4-1.3,1C160.1,38.2,160.5,38.5,162,38.8"/>
	<path class="st0" d="M30.2,33.5l1.8-4.1c0.5-1.1-0.3-2.3-1.5-2.3l-3.2,0l11.5-12.9h-5L22.6,26.5c-0.2,0.2-0.5,0-0.4-0.3l4.5-9.3
		c0.6-1.3-0.4-2.7-1.8-2.7H13.1L10.6,18h9.6c0.7,0,1.1,0.7,0.8,1.3l-8.4,18.3h4.6l2.5-5.8c0.2-0.5,0.8-0.9,1.4-0.9h4.2
		c0.7,0,1.1,0.7,0.9,1.3L25,35c-0.5,1.3,0.4,2.7,1.8,2.7h9l1.8-4.2H30.2z"/>
</g>
</svg>
