<?xml version="1.0" encoding="utf-8"?>
<!-- Generator: Adobe Illustrator 27.8.1, SVG Export Plug-In . SVG Version: 6.00 Build 0)  -->
<svg version="1.1" id="Layer_1" xmlns="http://www.w3.org/2000/svg" xmlns:xlink="http://www.w3.org/1999/xlink" x="0px" y="0px"
	 viewBox="0 0 132 132" style="enable-background:new 0 0 132 132;" xml:space="preserve">
<style type="text/css">
	.st0{fill:#FFFFFF;}
</style>
<g>
	<rect x="13" y="13" class="st0" width="106" height="106"/>
</g>
<g>
	<rect x="-0.1" y="-0.1" class="st0" width="132.3" height="132.3"/>
</g>
<g>
	<g>
		<path d="M107.1,39.6c-3.9,1.1-7.2,2.8-10.1,5c-2.8,2.3-5,5.2-6.6,8.9c-1.6,3.7-2.4,8.1-2.4,13.2c0,5.2,0.9,9.6,2.7,13.2
			c1.8,3.6,4.2,6.6,7.4,8.9c3.1,2.3,6.8,3.9,11,5c3.5,0.9,7.1,1.4,11,1.5V38h-0.2C115.2,38,111,38.5,107.1,39.6z"/>
	</g>
	<g>
		<path d="M117.1,109c-5.1,0-10.3-0.9-15.6-2.6c-5.3-1.7-10.1-4.3-14.5-7.8c-4.3-3.5-7.9-7.9-10.7-13.2c-2.8-5.3-4.1-11.6-4.1-18.8
			c0-7.2,1.2-13.4,3.6-18.7c2.4-5.3,5.6-9.7,9.6-13.2c4-3.5,8.6-6.1,13.8-7.8c5.2-1.7,10.6-2.6,16.2-2.6h4.7V12H12v12.3h4.7
			c5.6,0,11,0.9,16.2,2.6c5.2,1.7,9.8,4.3,13.8,7.8c4,3.5,7.2,7.9,9.6,13.2c2.4,5.3,3.6,11.5,3.6,18.7c0,7.3-1.4,13.5-4.1,18.8
			c-2.8,5.3-6.3,9.7-10.7,13.2c-4.3,3.5-9.2,6.1-14.5,7.8c-5.3,1.7-10.5,2.6-15.6,2.6H12v11h108v-11H117.1z"/>
	</g>
	<g>
		<path d="M33.9,88.8c3.1-2.3,5.6-5.2,7.4-8.9c1.8-3.6,2.7-8,2.7-13.2c0-5.1-0.8-9.5-2.4-13.2c-1.6-3.7-3.8-6.6-6.6-8.9
			c-2.8-2.3-6.2-3.9-10.1-5C21,38.5,16.8,38,12.2,38H12v57.4c3.8-0.2,7.5-0.7,11-1.5C27.2,92.7,30.8,91,33.9,88.8z"/>
	</g>
</g>
</svg>
