<?xml version="1.0" encoding="utf-8"?>
<!-- Generator: Adobe Illustrator 27.8.1, SVG Export Plug-In . SVG Version: 6.00 Build 0)  -->
<svg version="1.1" id="Layer_1" xmlns="http://www.w3.org/2000/svg" xmlns:xlink="http://www.w3.org/1999/xlink" x="0px" y="0px"
	 viewBox="0 0 372 150" style="enable-background:new 0 0 372 150;" xml:space="preserve">
<style type="text/css">
	.st0{fill:#231F20;}
	.st1{fill:#FFFFFF;}
	.st2{fill:none;stroke:#231F20;stroke-width:1.721;stroke-miterlimit:10;}
</style>
<g>
	<path class="st0" d="M355.5,145.2H16.5c-2,0-3.7-1.6-3.7-3.7v-5.9c0-2,1.6-3.7,3.7-3.7h338.9c2,0,3.7,1.6,3.7,3.7v5.9
		C359.1,143.6,357.5,145.2,355.5,145.2"/>
	<polygon class="st0" points="56.6,9.5 80.1,9.5 80.1,124.3 56.6,124.3 56.6,89.3 36.7,88 36.7,88 36.7,124.3 13.1,124.3 13.1,90.2 
		4.5,70.3 13.1,70.3 13.1,9.5 36.7,9.5 36.7,70.3 56.6,70.3 	"/>
	<polygon class="st0" points="151.4,9.5 151.4,72.2 129.7,88 129.7,124.3 106.2,124.3 106.2,88 84.4,72.2 84.4,9.5 108,9.5 
		108,60.4 117.9,67.6 127.9,60.4 127.9,9.5 	"/>
	<path class="st0" d="M221.1,35.6v62.6c0,4.8-1.1,9.2-3.4,13.1c-2.2,4-5.5,7.1-9.7,9.5c-4.2,2.3-9.3,3.5-15.2,3.5h-37.3V9.5h37.3
		c5.9,0,11,1.2,15.2,3.5c4.2,2.3,7.4,5.5,9.7,9.5C220,26.4,221.1,30.8,221.1,35.6 M179,104.9c1.5,0.1,2.9,0.1,4.1,0.1
		c5.6,0,9.3-0.6,11.1-1.7c2.2-1.3,3.3-4.8,3.3-10.5V41c0-5.7-1.1-9.2-3.3-10.5c-1.9-1.1-5.6-1.7-11.1-1.7c-1.2,0-2.6,0-4.1,0.1
		V104.9z"/>
	<path class="st0" d="M264.8,124.5l-7.9-30.2c-2.8,2-5.4,3.9-7.9,5.6v24.4h-23.6V9.5h34.1c6,0,11.1,1.2,15.3,3.5
		c4.2,2.4,7.4,5.5,9.7,9.5c2.2,4,3.4,8.3,3.4,13.1v34.1c-3.2,3-6.7,6.1-10.7,9.3l12,45.6H264.8z M248.9,28.9v45.3
		c5.8-3.6,11.5-8.1,17.1-13.6V48.2c0-4.7-0.1-8.4-0.3-11c-0.2-2.6-0.8-4.5-1.8-5.7c-1-1.2-2.7-2-5.1-2.3c-2-0.2-4.6-0.3-7.9-0.3
		H248.9z"/>
	<path class="st0" d="M345.9,13c4.2,2.4,7.4,5.5,9.7,9.5c2.2,4,3.4,8.3,3.4,13.1v34.7h8.7l-8.7,19.9v34.1h-23.6V88h-0.1l-19.8,1.3
		v35h-23.6V9.5h38.7C336.6,9.5,341.7,10.6,345.9,13 M335.3,40.7c0-5.8-1.1-9.3-3.4-10.6c-1.8-1-5.2-1.4-10.3-1.4
		c-1.8,0-3.8,0.1-6.1,0.2h-0.1v41.4h19.9V40.7z"/>
	<polygon class="st1" points="56.6,5.6 80.1,5.6 80.1,120.5 56.6,120.5 56.6,85.4 36.7,84.2 36.7,84.2 36.7,120.5 13.1,120.5 
		13.1,86.3 4.5,66.4 13.1,66.4 13.1,5.6 36.7,5.6 36.7,66.4 56.6,66.4 	"/>
	<polygon class="st2" points="56.6,5.6 80.1,5.6 80.1,120.5 56.6,120.5 56.6,85.4 36.7,84.2 36.7,84.2 36.7,120.5 13.1,120.5 
		13.1,86.3 4.5,66.4 13.1,66.4 13.1,5.6 36.7,5.6 36.7,66.4 56.6,66.4 	"/>
	<polygon class="st1" points="151.4,5.6 151.4,68.4 129.7,84.2 129.7,120.5 106.2,120.5 106.2,84.2 84.4,68.4 84.4,5.6 108,5.6 
		108,56.6 117.9,63.7 127.9,56.6 127.9,5.6 	"/>
	<polygon class="st2" points="151.4,5.6 151.4,68.4 129.7,84.2 129.7,120.5 106.2,120.5 106.2,84.2 84.4,68.4 84.4,5.6 108,5.6 
		108,56.6 117.9,63.7 127.9,56.6 127.9,5.6 	"/>
	<path class="st1" d="M221.1,31.7v62.6c0,4.8-1.1,9.2-3.4,13.1c-2.2,4-5.5,7.1-9.7,9.5c-4.2,2.4-9.3,3.5-15.2,3.5h-37.3V5.6h37.3
		c5.9,0,11,1.2,15.2,3.5c4.2,2.3,7.4,5.5,9.7,9.5C220,22.6,221.1,26.9,221.1,31.7 M179,101.1c1.5,0.1,2.9,0.1,4.1,0.1
		c5.6,0,9.3-0.6,11.1-1.7c2.2-1.3,3.3-4.8,3.3-10.5V37.1c0-5.7-1.1-9.2-3.3-10.5c-1.9-1.1-5.6-1.7-11.1-1.7c-1.2,0-2.6,0-4.1,0.1
		V101.1z"/>
	<path class="st2" d="M221.1,31.7v62.6c0,4.8-1.1,9.2-3.4,13.1c-2.2,4-5.5,7.1-9.7,9.5c-4.2,2.4-9.3,3.5-15.2,3.5h-37.3V5.6h37.3
		c5.9,0,11,1.2,15.2,3.5c4.2,2.3,7.4,5.5,9.7,9.5C220,22.6,221.1,26.9,221.1,31.7z M179,101.1c1.5,0.1,2.9,0.1,4.1,0.1
		c5.6,0,9.3-0.6,11.1-1.7c2.2-1.3,3.3-4.8,3.3-10.5V37.1c0-5.7-1.1-9.2-3.3-10.5c-1.9-1.1-5.6-1.7-11.1-1.7c-1.2,0-2.6,0-4.1,0.1
		V101.1z"/>
	<path class="st1" d="M264.8,120.7l-7.9-30.2c-2.8,2-5.4,3.9-7.9,5.6v24.4h-23.6V5.6h34.1c6,0,11.1,1.2,15.3,3.5
		c4.2,2.4,7.4,5.5,9.7,9.5c2.2,4,3.4,8.3,3.4,13.1v34.1c-3.2,3-6.7,6.1-10.7,9.3l12,45.6H264.8z M248.9,25v45.3
		c5.8-3.6,11.5-8.1,17.1-13.6V44.3c0-4.7-0.1-8.4-0.3-11c-0.2-2.6-0.8-4.5-1.8-5.7c-1-1.2-2.7-2-5.1-2.3c-2-0.2-4.6-0.3-7.9-0.3
		H248.9z"/>
	<path class="st2" d="M264.8,120.7l-7.9-30.2c-2.8,2-5.4,3.9-7.9,5.6v24.4h-23.6V5.6h34.1c6,0,11.1,1.2,15.3,3.5
		c4.2,2.4,7.4,5.5,9.7,9.5c2.2,4,3.4,8.3,3.4,13.1v34.1c-3.2,3-6.7,6.1-10.7,9.3l12,45.6H264.8z M248.9,25v45.3
		c5.8-3.6,11.5-8.1,17.1-13.6V44.3c0-4.7-0.1-8.4-0.3-11c-0.2-2.6-0.8-4.5-1.8-5.7c-1-1.2-2.7-2-5.1-2.3c-2-0.2-4.6-0.3-7.9-0.3
		H248.9z"/>
	<path class="st1" d="M345.9,9.2c4.2,2.4,7.4,5.5,9.7,9.5c2.2,4,3.4,8.3,3.4,13.1v34.7h8.7l-8.7,19.9v34.1h-23.6V84.2h-0.1
		l-19.8,1.3v35h-23.6V5.6h38.7C336.6,5.6,341.7,6.8,345.9,9.2 M335.3,36.9c0-5.8-1.1-9.3-3.4-10.6c-1.8-1-5.2-1.4-10.3-1.4
		c-1.8,0-3.8,0.1-6.1,0.2h-0.1v41.4h19.9V36.9z"/>
	<path class="st2" d="M345.9,9.2c4.2,2.4,7.4,5.5,9.7,9.5c2.2,4,3.4,8.3,3.4,13.1v34.7h8.7l-8.7,19.9v34.1h-23.6V84.2h-0.1
		l-19.8,1.3v35h-23.6V5.6h38.7C336.6,5.6,341.7,6.8,345.9,9.2z M335.3,36.9c0-5.8-1.1-9.3-3.4-10.6c-1.8-1-5.2-1.4-10.3-1.4
		c-1.8,0-3.8,0.1-6.1,0.2h-0.1v41.4h19.9V36.9z"/>
	<path class="st1" d="M23.3,142.2c-1.1,0-2.1-0.4-3-1.1l0.9-1.1c0.6,0.5,1.3,0.9,2.1,0.9c0.6,0,1-0.2,1-0.7v0c0-0.4-0.2-0.6-1.4-0.9
		c-1.4-0.4-2.3-0.8-2.3-2.1v0c0-1.3,1-2.1,2.5-2.1c1,0,1.9,0.3,2.6,0.9l-0.8,1.2c-0.6-0.4-1.2-0.7-1.8-0.7c-0.6,0-0.9,0.3-0.9,0.6v0
		c0,0.5,0.3,0.6,1.5,0.9c1.4,0.4,2.2,0.9,2.2,2.1v0C25.9,141.4,24.8,142.2,23.3,142.2"/>
	<polygon class="st1" points="38.4,136.5 38.4,142.1 36.9,142.1 36.9,136.5 34.7,136.5 34.7,135.1 40.5,135.1 40.5,136.5 	"/>
	<polygon class="st1" points="49.9,142.1 49.9,135.1 55.2,135.1 55.2,136.5 51.4,136.5 51.4,137.9 54.7,137.9 54.7,139.3 
		51.4,139.3 51.4,140.7 55.2,140.7 55.2,142.1 	"/>
	<path class="st1" d="M69,142.1l-1.5-2.2h-1.2v2.2h-1.5v-7H68c1.7,0,2.6,0.9,2.6,2.3v0c0,1.1-0.6,1.9-1.5,2.2l1.7,2.5H69z
		 M69.1,137.5c0-0.7-0.5-1-1.2-1h-1.5v2h1.6C68.6,138.5,69.1,138.1,69.1,137.5L69.1,137.5z"/>
	<polygon class="st1" points="80.2,142.1 80.2,135.1 85.5,135.1 85.5,136.5 81.7,136.5 81.7,137.9 85,137.9 85,139.3 81.7,139.3 
		81.7,140.7 85.5,140.7 85.5,142.1 	"/>
	<path class="st1" d="M98.5,142.2c-2.2,0-3.7-1.6-3.7-3.6v0c0-2,1.6-3.6,3.7-3.6c2.2,0,3.7,1.6,3.7,3.6v0
		C102.2,140.6,100.6,142.2,98.5,142.2 M100.6,138.6c0-1.2-0.9-2.2-2.1-2.2c-1.2,0-2.1,1-2.1,2.2v0c0,1.2,0.9,2.2,2.1,2.2
		C99.7,140.8,100.6,139.8,100.6,138.6L100.6,138.6z"/>
	<path class="st1" d="M127.2,142.1l-1.5-2.2h-1.2v2.2h-1.5v-7h3.2c1.7,0,2.6,0.9,2.6,2.3v0c0,1.1-0.6,1.9-1.5,2.2l1.7,2.5H127.2z
		 M127.2,137.5c0-0.7-0.5-1-1.2-1h-1.5v2h1.6C126.8,138.5,127.2,138.1,127.2,137.5L127.2,137.5z"/>
	<polygon class="st1" points="138.3,142.1 138.3,135.1 143.6,135.1 143.6,136.5 139.9,136.5 139.9,137.9 143.2,137.9 143.2,139.3 
		139.9,139.3 139.9,140.7 143.7,140.7 143.7,142.1 	"/>
	<polygon class="st1" points="156.8,142.2 155.4,142.2 152.6,135.1 154.3,135.1 156.1,140 158,135.1 159.6,135.1 	"/>
	<polygon class="st1" points="168.9,142.1 168.9,135.1 174.2,135.1 174.2,136.5 170.4,136.5 170.4,137.9 173.7,137.9 173.7,139.3 
		170.4,139.3 170.4,140.7 174.2,140.7 174.2,142.1 	"/>
	<path class="st1" d="M188,142.1l-1.5-2.2h-1.2v2.2h-1.5v-7h3.2c1.7,0,2.7,0.9,2.7,2.3v0c0,1.1-0.6,1.9-1.5,2.2l1.7,2.5H188z
		 M188.1,137.5c0-0.7-0.5-1-1.2-1h-1.5v2h1.6C187.6,138.5,188.1,138.1,188.1,137.5L188.1,137.5z"/>
	<path class="st1" d="M202.5,142.1h-3.3v-7h3.3c1.4,0,2.3,0.7,2.3,1.8v0c0,0.8-0.4,1.2-0.9,1.5c0.8,0.3,1.3,0.8,1.3,1.7v0
		C205.2,141.5,204.1,142.1,202.5,142.1 M203.2,137.2c0-0.5-0.4-0.7-1-0.7h-1.5v1.5h1.4C202.8,137.9,203.2,137.7,203.2,137.2
		L203.2,137.2z M203.6,140c0-0.5-0.4-0.8-1.1-0.8h-1.8v1.5h1.8C203.2,140.8,203.6,140.5,203.6,140L203.6,140z"/>
	<path class="st1" d="M230.5,142.3l-0.8-0.8c-0.6,0.5-1.2,0.8-2.1,0.8c-1.3,0-2.4-0.8-2.4-2c0-0.9,0.5-1.5,1.4-1.9
		c-0.3-0.5-0.5-0.9-0.5-1.4c0-1,0.8-1.9,2.1-1.9c1.2,0,2,0.8,2,1.8c0,1-0.6,1.5-1.5,1.8l0.9,0.9c0.2-0.4,0.5-0.8,0.7-1.2l1.1,0.6
		c-0.3,0.5-0.6,1-0.9,1.5l1,1L230.5,142.3z M227.4,139.2c-0.5,0.2-0.7,0.6-0.7,0.9c0,0.5,0.4,0.8,1,0.8c0.4,0,0.7-0.1,1-0.4
		L227.4,139.2z M228.2,136.2c-0.4,0-0.7,0.3-0.7,0.7c0,0.3,0.1,0.6,0.4,0.9c0.6-0.2,0.9-0.5,0.9-0.9
		C228.9,136.4,228.6,136.2,228.2,136.2"/>
	<polygon class="st1" points="255.2,136.5 255.2,142.1 253.7,142.1 253.7,136.5 251.5,136.5 251.5,135.1 257.4,135.1 257.4,136.5 	
		"/>
	<path class="st1" d="M271,142.1l-1.5-2.2h-1.2v2.2h-1.5v-7h3.2c1.7,0,2.7,0.9,2.7,2.3v0c0,1.1-0.6,1.9-1.5,2.2l1.7,2.5H271z
		 M271,137.5c0-0.7-0.5-1-1.2-1h-1.5v2h1.6C270.6,138.5,271,138.1,271,137.5L271,137.5z"/>
	<polygon class="st1" points="282.1,142.1 282.1,135.1 287.4,135.1 287.4,136.5 283.7,136.5 283.7,137.9 287,137.9 287,139.3 
		283.7,139.3 283.7,140.7 287.5,140.7 287.5,142.1 	"/>
	<polygon class="st1" points="302.5,142.1 302.5,137.5 300.5,140.5 300.5,140.5 298.5,137.6 298.5,142.1 297,142.1 297,135.1 
		298.7,135.1 300.5,138.1 302.4,135.1 304,135.1 304,142.1 	"/>
	<path class="st1" d="M317.3,142.2c-2.2,0-3.7-1.6-3.7-3.6v0c0-2,1.6-3.6,3.7-3.6c2.2,0,3.7,1.6,3.7,3.6v0
		C321,140.6,319.4,142.2,317.3,142.2 M319.4,138.6c0-1.2-0.9-2.2-2.1-2.2s-2.1,1-2.1,2.2v0c0,1.2,0.9,2.2,2.1,2.2
		S319.4,139.8,319.4,138.6L319.4,138.6z"/>
	<polygon class="st1" points="330.6,142.1 330.6,135.1 332.1,135.1 332.1,140.7 335.6,140.7 335.6,142.1 	"/>
	<path class="st1" d="M347.9,142.2c-2.2,0-3.7-1.6-3.7-3.6v0c0-2,1.6-3.6,3.7-3.6c2.2,0,3.7,1.6,3.7,3.6v0
		C351.7,140.6,350.1,142.2,347.9,142.2 M350.1,138.6c0-1.2-0.9-2.2-2.1-2.2s-2.1,1-2.1,2.2v0c0,1.2,0.9,2.2,2.1,2.2
		C349.2,140.8,350.1,139.8,350.1,138.6L350.1,138.6z"/>
</g>
</svg>
